<svg id="c2bd7c57-31b6-4b8b-81ba-019d3460f2ea" data-name="Ebene 1" xmlns="http://www.w3.org/2000/svg" viewBox="0 0 85.04 39.69"><title>Zeichenfläche 1</title><path d="M5.13,31.56V4.7h5.92V31.56ZM12,11.39a8.75,8.75,0,0,1,4-1c5.74,0,8.7,4.86,8.7,10.56,0,6.12-3,11.25-8.74,11.25A6.7,6.7,0,0,1,12,31V26.2a3.54,3.54,0,0,0,2.63,1.11c3.34,0,4.18-3.5,4.18-6.58a6.73,6.73,0,0,0-1.07-4.06,3.4,3.4,0,0,0-2.89-1.49A4,4,0,0,0,12,16.29Z" style="fill:#141412"/><path d="M27.43,35.93a5.41,5.41,0,0,0,3.27-4.37H27.81v-5.7h5.63v5A7,7,0,0,1,32.22,35a8.36,8.36,0,0,1-4.79,3Z" style="fill:#fab900"/><path d="M37.58,31.56V11h5.93V31.52ZM44.49,12a6.27,6.27,0,0,1,4.37-1.55c2.55,0,4.72,1.06,5.63,3.45a7.19,7.19,0,0,1,6.27-3.45,6.68,6.68,0,0,1,4.82,1.82c1.79,1.71,1.83,3.57,1.86,7.67V31.52H61.52V19.74c0-1.29,0-4-3-4s-3,2.66-3.07,4.07V31.56H49.55V20.85c0-2.06,0-3.12-.69-4a2.78,2.78,0,0,0-2.31-1.07,3.3,3.3,0,0,0-2.06.65Z" style="fill:#141412"/><path d="M73,13.82V4.74h5.82v9.08l-1.07,10.1H73.91Zm0,17.74V26h5.59v5.58Z" style="fill:#ea4f50"/></svg>